# AST/ASF file generated using VICON BodyLanguage
# -----------------------------------------------
:version 1.10
:name VICON
:units
  mass 1.0
  length 0.45
  angle deg
:documentation
   .ast/.asf automatically generated from VICON data using
   VICON BodyBuilder and BodyLanguage model FoxedUp or BRILLIANT.MOD
:root
   order TX TY TZ RX RY RZ
   axis XYZ
   position 0 0 0  
   orientation 0 0 0 
:bonedata
  begin
     id 1 
     name lhipjoint
     direction 0.635376 -0.686425 0.353719 
     length 2.47244 
     axis 0 0 0  XYZ
  end
  begin
     id 2 
     name lfemur
     direction 0.34202 -0.939693 0  
     length 7.25268  
     axis 0 0 20  XYZ
    dof rx ry rz
    limits (-160.0 20.0)
           (-70.0 70.0)
           (-60.0 70.0)
  end
  begin
     id 3 
     name ltibia
     direction 0.34202 -0.939693 0   
     length 7.6767   
     axis 0 0 20   XYZ
    dof rx
    limits (-10.0 170.0)
  end
  begin
     id 4 
     name lfoot
     direction 0.0803374 -0.220725 0.972022   
     length 2.22945   
     axis -90 7.62852e-016 20   XYZ
    dof rx rz
    limits (-45.0 90.0)
           (-70.0 20.0)
  end
  begin
     id 5 
     name ltoes
     direction 1.53579e-011 -4.21994e-011 1   
     length 1.11848   
     axis -90 7.62852e-016 20   XYZ
    dof rx
    limits (-90.0 20.0)
  end
  begin
     id 6 
     name rhipjoint
     direction -0.664428 -0.664335 0.342336   
     length 2.55466  
     axis 0 0 0  XYZ 
  end
  begin
     id 7 
     name rfemur
     direction -0.34202 -0.939693 0   
     length 6.83172   
     axis 0 0 -20   XYZ
    dof rx ry rz
    limits (-160.0 20.0)
           (-70.0 70.0)
           (-70.0 60.0)
  end
  begin
     id 8 
     name rtibia
     direction -0.34202 -0.939693 0   
     length 7.62692   
     axis 0 0 -20   XYZ
    dof rx
    limits (-10.0 170.0)
 end
 begin
     id 9 
     name rfoot
     direction -0.0949276 -0.260811 0.960711   
     length 2.19684  
     axis -90 -7.62852e-016 -20   XYZ
    dof rx rz
    limits (-45.0 90.0)
           (-20.0 70.0)
  end
  begin
     id 10 
     name rtoes
     direction -1.53543e-011 -4.2183e-011 1   
     length 1.09848   
     axis -90 -7.62852e-016 -20   XYZ
    dof rx
    limits (-90.0 20.0)
  end
  begin
     id 11 
     name lowerback
     direction 0.0118782 0.999815 -0.0151555   
     length 2.15772   
     axis 0 0 0   XYZ
    dof rx ry rz
    limits (-20.0 45.0)
           (-30.0 30.0)
           (-30.0 30.0)
  end
  begin
     id 12 
     name upperback
     direction 0.00130825 0.999065 0.0432113   
     length 2.14863   
     axis 0 0 0   XYZ
    dof rx ry rz
    limits (-20.0 45.0)
           (-30.0 30.0)
           (-30.0 30.0)
  end
  begin
     id 13 
     name thorax
     direction -0.00347005 0.998773 0.0494011   
     length 2.14936   
     axis 0 0 0   XYZ
    dof rx ry rz
    limits (-20.0 45.0)
           (-30.0 30.0)
           (-30.0 30.0)
  end
  begin
     id 14 
     name lowerneck
     direction -0.0262159 0.99424 0.103921   
     length 1.69373   
     axis 0 0 0   XYZ
    dof rx ry rz
    limits (-20.0 45.0)
           (-30.0 30.0)
           (-30.0 30.0)
  end
  begin
     id 15 
     name upperneck
     direction 0.0353511 0.977394 -0.20845   
     length 1.70857   
     axis 0 0 0   XYZ
    dof rx ry rz
    limits (-20.0 45.0)
           (-30.0 30.0)
           (-30.0 30.0)
  end
  begin
     id 16
     name head
     direction 0.0139214 0.996594 -0.0812836  
     length 1.72777  
     axis 0 0 0   XYZ
    dof rx ry rz
    limits (-20.0 45.0)
           (-30.0 30.0)
           (-30.0 30.0)
  end
  begin
     id 17 
     name lclavicle
     direction 0.841247 0.537205 -0.0609508  
     length 3.55371  
     axis 0 0 0   XYZ
    dof ry rz
    limits (-20.0 10.0)
           (0.0 20.0)
  end
  begin
     id 18 
     name lhumerus
     direction 1 -4.48964e-011 1.60116e-018   
     length 4.91377   
     axis -180 -30 -90   XYZ
    dof rx ry rz
    limits (-60.0 90.0)
           (-90.0 90.0)
           (-90.0 90.0)
  end
  begin
     id 19
     name lradius
     direction 1 -4.48989e-011 -8.93847e-027   
     length 3.00291   
     axis -180 -30 -90   XYZ
    dof rx
    limits (-10.0 170.0)
  end
  begin
     id 20
     name lwrist
     direction 1 -4.48932e-011 -7.31504e-027   
     length 1.50145   
     axis 5.74121e-015 90 90   XYZ
    dof ry
    limits (-180.0 0.0)
 end
  begin
     id 21 
     name lhand
     direction 1 -4.48971e-011 -1.46301e-026   
     length 0.450922   
     axis 9.33524e-015 90 90   XYZ
    dof rx rz
    limits (-90.0 90.0)
           (-45.0 45.0)
  end
  begin
     id 22 
     name lfingers
     direction 1 -4.49039e-011 -2.92602e-026   
     length 0.363545   
     axis 1.86705e-014 90 90   XYZ
    dof rx
    limits (0.0 90.0)
  end
  begin
     id 23
     name lthumb
     direction 0.707107 -6.34941e-011 0.707107   
     length 0.52198   
     axis -90 45 2.85299e-015   XYZ
    dof rx rz
    limits (-45.0 45.0)
           (-45.0 45.0)
  end
  begin
     id 24 
     name rclavicle
     direction -0.825079 0.56158 -0.0622297   
     length 3.39909  
     axis 0 0 0   XYZ 
    dof ry rz
    limits (-10.0 20.0)
           (-20.0 0.0)
  end
  begin
     id 25 
     name rhumerus
     direction -1 -4.48965e-011 1.61691e-027  
     length 4.86725   
     axis -180 30 90   XYZ
    dof rx ry rz
    limits (-90.0 60.0)
           (-90.0 90.0)
           (-90.0 90.0)
  end
  begin
     id 26 
     name rradius
     direction -1 -4.48964e-011 -2.25776e-027   
     length 3.17144   
     axis -180 30 90   XYZ
    dof rx
    limits (-10.0 170.0)
  end
  begin
     id 27 
     name rwrist
     direction -1 -4.48961e-011 -7.31504e-027   
     length 1.58572   
     axis 5.74121e-015 -90 -90   XYZ
    dof ry
    limits (-180.0 0.0)
  end
  begin
     id 28
     name rhand
     direction -1 -4.49013e-011 -1.46301e-026   
     length 0.419368   
     axis 9.33524e-015 -90 -90   XYZ
    dof rx rz
    limits (-90.0 90.0)
           (-45.0 45.0)
  end
  begin
     id 29
     name rfingers
     direction -1 -4.489e-011 -2.92602e-026   
     length 0.338105   
     axis 1.86705e-014 -90 -90   XYZ
    dof rx
    limits (0.0 90.0)
  end
  begin
     id 30
     name rthumb
     direction -0.707107 -6.35022e-011 0.707107   
     length 0.485453   
     axis -90 -45 -2.85299e-015   XYZ
    dof rx rz
    limits (-45.0 45.0)
           (-45.0 45.0)
  end
:hierarchy
  begin
    root lhipjoint rhipjoint lowerback
    lhipjoint lfemur
    lfemur ltibia
    ltibia lfoot
    lfoot ltoes
    rhipjoint rfemur
    rfemur rtibia
    rtibia rfoot
    rfoot rtoes
    lowerback upperback
    upperback thorax
    thorax lowerneck lclavicle rclavicle
    lowerneck upperneck
    upperneck head
    lclavicle lhumerus
    lhumerus lradius
    lradius lwrist
    lwrist lhand lthumb
    lhand lfingers
    rclavicle rhumerus
    rhumerus rradius
    rradius rwrist
    rwrist rhand rthumb
    rhand rfingers
  end

#!OML:ASF H:\Swim 2\Project 1\Capture day 1\Session 1\male.ASF
:FULLY-SPECIFIED
:DEGREES
1621
root 7.78761 8.91022 12.4271 79.0524 0.486384 179.092
lowerback 28.2198 1.56783 17.7682
upperback -7.76136 8.35024 -6.36978
thorax -21.437 0.386694 -21.7574
lowerneck -1.80403 -2.87067 -0.632331
upperneck 44.5898 -8.84273 -0.298806
head 16.517 -7.27942 -2.19401
rclavicle -1.46306e-013 5.24792e-014
rhumerus -73.5237 -7.32085 -74.2711
rradius 13.0117
rwrist 15.5121
rhand -6.47812 -7.07429
rfingers 7.12502
rthumb 19.3727 -36.1293
lclavicle -1.46306e-013 5.24792e-014
lhumerus -990.019 38.1642 1090.21
lradius 27.8382
lwrist 19.8821
lhand -46.0014 -20.9107
lfingers 7.12502
lthumb -18.7471 368.206
rfemur 42.5699 12.7236 23.5344
rtibia 13.3372
rfoot 14.002 0.618496
rtoes 22.0087
lfemur 16.2197 -3.11427 -27.6781
ltibia 28.5571
lfoot 11.6109 8.98672
ltoes 49.2043
1622
root 7.77884 8.91874 12.4209 78.9278 0.483754 178.994
lowerback 28.3516 1.5218 17.8251
upperback -7.72134 8.32652 -6.33561
thorax -21.4638 0.366953 -21.7441
lowerneck -1.80809 -2.76741 -0.459906
upperneck 44.4577 -8.54305 -0.57387
head 16.404 -7.12717 -2.28222
rclavicle -5.40694e-014 -3.4191e-014
rhumerus -73.4521 -10.0478 -68.2273
rradius 11.7021
rwrist 20.6509
rhand -6.70487 -7.18336
rfingers 7.12502
rthumb 19.1546 -36.2601
lclavicle -5.40694e-014 -3.4191e-014
lhumerus -989.489 38.7679 1091.55
lradius 27.8567
lwrist 20.6383
lhand -45.9899 -20.8181
lfingers 7.12502
lthumb -18.7359 368.3
rfemur 42.9284 12.6829 23.4531
rtibia 12.9509
rfoot 14.2647 0.430087
rtoes 22.7627
lfemur 16.4044 -3.79056 -27.7732
ltibia 27.1129
lfoot 10.7674 10.4875
ltoes 47.4108
1623
root 7.76882 8.92553 12.4099 78.7016 0.46249 178.849
lowerback 28.6019 1.45872 17.8833
upperback -7.65399 8.29875 -6.31283
thorax -21.5214 0.339349 -21.758
lowerneck -1.80822 -2.67247 -0.277291
upperneck 44.3269 -8.27788 -0.822465
head 16.2959 -6.98853 -2.36669
rclavicle -1.11319e-013 5.725e-014
rhumerus -73.8378 -12.891 -61.7928
rradius 10.555
rwrist 26.3956
rhand -6.97816 -7.33243
rfingers 7.12502
rthumb 18.8918 -36.435
lclavicle -1.11319e-013 5.725e-014
lhumerus -988.947 39.368 1092.85
lradius 27.8979
lwrist 21.621
lhand -46.01 -20.8086
lfingers 7.12502
lthumb -18.7553 368.307
rfemur 43.1778 12.6227 23.334
rtibia 12.7118
rfoot 14.2495 0.00353239
rtoes 23.9676
lfemur 16.7661 -4.51518 -27.9713
ltibia 25.6654
lfoot 9.90032 12.2377
ltoes 45.4404
1624
root 7.758 8.92994 12.3943 78.3932 0.426439 178.666
lowerback 28.953 1.3829 17.9387
upperback -7.56552 8.26972 -6.29643
thorax -21.6071 0.306409 -21.7888
lowerneck -1.81655 -2.58396 -0.0926136
upperneck 44.2208 -8.0453 -1.04617
head 16.2085 -6.86579 -2.44954
rclavicle -6.36111e-015 3.26007e-014
rhumerus -73.1687 -14.0593 -61.0828
rradius 9.54082
rwrist 26.5959
rhand -7.73697 -8.39232
rfingers 7.12502
rthumb 18.1619 -37.5644
lclavicle -6.36111e-015 3.26007e-014
lhumerus -988.262 39.9391 1094.35
lradius 27.956
lwrist 22.5802
lhand -45.9154 -20.8408
lfingers 7.12502
lthumb -18.6643 368.284
rfemur 43.2836 12.5304 23.1753
rtibia 12.6455
rfoot 13.9786 -0.599876
rtoes 25.5071
lfemur 17.2662 -5.28283 -28.2691
ltibia 24.2694
lfoot 8.99778 14.2206
ltoes 43.3302
1625
root 7.74657 8.93187 12.3754 78.0485 0.374249 178.455
lowerback 29.3582 1.30266 17.9861
upperback -7.46761 8.24171 -6.28806
thorax -21.7091 0.271724 -21.832
lowerneck -1.84238 -2.5032 0.0987401
upperneck 44.152 -7.84271 -1.25928
head 16.1489 -6.75926 -2.53898
rclavicle -7.31528e-014 4.45278e-014
rhumerus -72.5195 -15.1763 -60.3947
rradius 8.60384
rwrist 26.9508
rhand -8.34232 -9.3876
rfingers 7.12502
rthumb 17.5794 -38.6128
lclavicle -7.31528e-014 4.45278e-014
lhumerus -987.354 40.4506 1096.13
lradius 28.0168
lwrist 23.367
lhand -45.7216 -20.8452
lfingers 7.12502
lthumb -18.4779 368.297
rfemur 43.192 12.4146 22.9804
rtibia 12.7776
rfoot 13.5058 -1.2474
rtoes 27.0746
lfemur 17.8349 -6.0778 -28.6601
ltibia 22.9838
lfoot 8.00754 16.4182
ltoes 41.043
1626
root 7.73503 8.93103 12.3542 77.7231 0.324355 178.232
lowerback 29.7599 1.22523 18.0364
upperback -7.377 8.22045 -6.2831
thorax -21.8137 0.238178 -21.8848
lowerneck -1.84278 -2.43825 0.275784
upperneck 44.0548 -7.67409 -1.44143
head 16.0718 -6.66559 -2.61317
rclavicle -4.77083e-014 8.74653e-015
rhumerus -71.9153 -16.2509 -59.6996
rradius 7.76413
rwrist 27.4568
rhand -8.73037 -10.3144
rfingers 7.12502
rthumb 17.206 -39.5726
lclavicle -4.77083e-014 8.74653e-015
lhumerus -986.299 40.9128 1098.12
lradius 28.0905
lwrist 23.9828
lhand -45.4111 -20.7454
lfingers 7.12502
lthumb -18.1792 368.425
rfemur 42.8453 12.2606 22.7621
rtibia 13.1075
rfoot 12.9625 -1.79073
rtoes 28.2236
lfemur 18.3864 -6.86299 -29.0969
ltibia 21.8678
lfoot 6.84658 18.7352
ltoes 38.4722
1627
root 7.72338 8.92757 12.3326 77.4818 0.281841 178.009
lowerback 30.0914 1.1655 18.0903
upperback -7.31104 8.21648 -6.27583
thorax -21.903 0.213238 -21.9374
lowerneck -1.84593 -2.38267 0.434175
upperneck 43.9723 -7.53003 -1.60303
head 16.0072 -6.58524 -2.68067
rclavicle 6.36111e-015 2.70347e-014
rhumerus -71.3619 -17.2849 -58.9822
rradius 7.02054
rwrist 28.0727
rhand -8.90783 -11.1783
rfingers 7.12502
rthumb 17.0352 -40.4514
lclavicle 6.36111e-015 2.70347e-014
lhumerus -985.251 41.3506 1100.12
lradius 28.1852
lwrist 24.5042
lhand -45.065 -20.4807
lfingers 7.12502
lthumb -17.8462 368.72
rfemur 42.1982 12.0836 22.5334
rtibia 13.6154
rfoot 12.4253 -2.16337
rtoes 28.7663
lfemur 18.831 -7.59714 -29.5408
ltibia 20.9667
lfoot 5.62807 21.0848
ltoes 35.8165
1628
root 7.71211 8.92175 12.3115 77.3524 0.232582 177.805
lowerback 30.3201 1.12839 18.1286
upperback -7.27608 8.22222 -6.27183
thorax -21.9745 0.196271 -21.9815
lowerneck -1.74923 -2.36031 0.545842
upperneck 43.7626 -7.4209 -1.73578
head 15.853 -6.51496 -2.71274
rclavicle -1.39944e-013 5.56597e-014
rhumerus -70.8731 -18.2878 -58.2431
rradius 6.37534
rwrist 28.7788
rhand -8.8868 -11.9894
rfingers 7.12502
rthumb 17.0554 -41.2608
lclavicle -1.39944e-013 5.56597e-014
lhumerus -984.365 41.8094 1101.92
lradius 28.302
lwrist 25.0367
lhand -44.6753 -19.9938
lfingers 7.12502
lthumb -17.4712 369.241
rfemur 41.2559 11.8761 22.2835
rtibia 14.2563
rfoot 11.9183 -2.36235
rtoes 28.6736
lfemur 19.1189 -8.22826 -29.9683
ltibia 20.309
lfoot 4.54969 23.4241
ltoes 33.6086
1629
root 7.70122 8.91412 12.2911 77.3281 0.183883 177.638
lowerback 30.448 1.10817 18.1596
upperback -7.27132 8.23258 -6.26907
thorax -22.0305 0.183503 -22.0177
lowerneck -1.60647 -2.35599 0.642531
upperneck 43.5065 -7.33436 -1.86029
head 15.6657 -6.45335 -2.73433
rclavicle -6.36111e-015 7.95139e-016
rhumerus -70.4646 -19.2605 -57.4762
rradius 5.84637
rwrist 29.5584
rhand -8.67573 -12.7439
rfingers 7.12502
rthumb 17.2586 -41.9976
lclavicle -6.36111e-015 7.95139e-016
lhumerus -983.669 42.3108 1103.48
lradius 28.4196
lwrist 25.5358
lhand -44.2064 -19.2422
lfingers 7.12502
lthumb -17.0199 370.032
rfemur 40.0646 11.6379 22.0405
rtibia 14.9897
rfoot 11.4665 -2.37982
rtoes 27.8092
lfemur 19.2573 -8.72227 -30.3485
ltibia 19.8928
lfoot 3.6542 25.5835
ltoes 32.0491
1630
root 7.69093 8.90519 12.2696 77.333 0.11717 177.528
lowerback 30.545 1.08954 18.1631
upperback -7.27666 8.22868 -6.2675
thorax -22.0943 0.166596 -22.033
lowerneck -1.42147 -2.36616 0.725079
upperneck 43.2146 -7.26808 -1.9741
head 15.4528 -6.4 -2.74579
rclavicle -3.33958e-014 -6.36111e-015
rhumerus -70.1472 -20.2079 -56.6744
rradius 5.44309
rwrist 30.3722
rhand -8.26115 -13.4126
rfingers 7.12502
rthumb 17.6575 -42.6308
lclavicle -3.33958e-014 -6.36111e-015
lhumerus -983.192 42.8602 1104.78
lradius 28.5121
lwrist 25.9958
lhand -43.7423 -18.2223
lfingers 7.12502
lthumb -16.5731 371.09
rfemur 38.7623 11.3789 21.8215
rtibia 15.7576
rfoot 10.8957 -2.43332
rtoes 26.9277
lfemur 19.3341 -9.06788 -30.709
ltibia 19.7089
lfoot 2.99941 27.4493
ltoes 31.3758
1631
root 7.6814 8.89558 12.2461 77.3148 0.035041 177.486
lowerback 30.6522 1.05943 18.1413
upperback -7.27621 8.19872 -6.26463
thorax -22.1724 0.140378 -22.0227
lowerneck -1.22725 -2.38848 0.842878
upperneck 42.9217 -7.20387 -2.14268
head 15.2352 -6.34856 -2.78606
rclavicle -1.20861e-013 5.64548e-014
rhumerus -69.9275 -21.1305 -55.8364
rradius 5.18744
rwrist 31.1538
rhand -7.69751 -13.9974
rfingers 7.12502
rthumb 18.1999 -43.166
lclavicle -1.20861e-013 5.64548e-014
lhumerus -982.881 43.44 1105.88
lradius 28.5564
lwrist 26.3547
lhand -43.2626 -16.9338
lfingers 7.12502
lthumb -16.1112 372.417
rfemur 37.4421 11.0899 21.6443
rtibia 16.5226
rfoot 10.2213 -2.52511
rtoes 26.0255
lfemur 19.4253 -9.27712 -31.0616
ltibia 19.728
lfoot 2.52768 28.9165
ltoes 31.5229
1632
root 7.67291 8.88583 12.2204 77.2596 -0.0353445 177.513
lowerback 30.7738 1.02023 18.1117
upperback -7.26105 8.15408 -6.23701
thorax -22.2476 0.113522 -21.9646
lowerneck -1.13212 -2.39792 0.992625
upperneck 42.7472 -7.11595 -2.36945
head 15.1006 -6.29419 -2.87019
rclavicle -4.13472e-014 1.82882e-014
rhumerus -69.7983 -22.0165 -54.9232
rradius 5.0986
rwrist 31.8
rhand -6.97081 -14.4818
rfingers 7.12502
rthumb 18.8989 -43.5837
lclavicle -4.13472e-014 1.82882e-014
lhumerus -982.738 44.0632 1106.84
lradius 28.5413
lwrist 26.6285
lhand -42.8288 -15.4173
lfingers 7.12502
lthumb -15.6934 373.966
rfemur 36.1459 10.7662 21.5429
rtibia 17.2519
rfoot 9.5068 -2.67714
rtoes 25.1245
lfemur 19.5648 -9.36189 -31.3794
ltibia 19.9215
lfoot 2.2345 29.8491
ltoes 32.163
1633
root 7.66531 8.87674 12.1933 77.1562 -0.0895287 177.602
lowerback 30.9165 0.971732 18.0793
upperback -7.22754 8.09784 -6.18219
thorax -22.3157 0.0879225 -21.8592
lowerneck -1.13581 -2.39509 1.15747
upperneck 42.6851 -7.00431 -2.64559
head 15.0452 -6.23766 -2.9908
rclavicle -1.39944e-013 3.33958e-014
rhumerus -69.736 -22.8788 -53.9395
rradius 5.14522
rwrist 32.2162
rhand -6.19735 -14.9093
rfingers 7.12502
rthumb 19.6426 -43.9369
lclavicle -1.39944e-013 3.33958e-014
lhumerus -982.7 44.6849 1107.72
lradius 28.4468
lwrist 26.7955
lhand -42.5756 -13.6639
lfingers 7.12502
lthumb -15.4496 375.739
rfemur 34.907 10.4299 21.5303
rtibia 17.9344
rfoot 8.73935 -2.92379
rtoes 24.4656
lfemur 19.7878 -9.34365 -31.6682
ltibia 20.254
lfoot 2.10799 30.2141
ltoes 32.8725
